<?xml version="1.0" encoding="utf-8"?>
<!-- Generator: Adobe Illustrator 27.0.0, SVG Export Plug-In . SVG Version: 6.00 Build 0)  -->
<svg version="1.1" id="Layer_1" xmlns="http://www.w3.org/2000/svg" xmlns:xlink="http://www.w3.org/1999/xlink" x="0px" y="0px"
	 viewBox="0 0 316.5 377.5" style="enable-background:new 0 0 316.5 377.5;" xml:space="preserve">
<style type="text/css">
	.st0{fill-rule:evenodd;clip-rule:evenodd;stroke:#000000;}
	.st1{fill:#FFFFFF;stroke:#000000;stroke-miterlimit:10;}
	.st2{fill:#231F20;}
</style>
<path class="st0" d="M125.7,388.8"/>
<path class="st0" d="M174,390.7"/>
<path class="st0" d="M165,384.3"/>
<path class="st0" d="M-18,364.3"/>
<path class="st0" d="M400.2,236.6"/>
<path class="st1" d="M558.7,146.3"/>
<path class="st2" d="M306.9,31.7C288.8,3.2,245.4,1.8,217.6,0.9C184.5,0.1,109.3,4.8,101,1.5c-5.2,5.3,7.2,9.6,10.4,11.8
	c17.8,12.6,14,88.7,12.1,142.3c-0.4,11.4-0.8,28.4-0.8,49.1c-15.6,3.8-39.3,12.5-65.9,28.2c-18.6,11-33.9,24.8-45.9,44.4
	c-19.2,34-6.4,92.2,48.4,96.6c18.9,3,67.6,0.5,91.7,0.5c2.3,0.1,6.7,0.3,8.9-2.4c2.4-1,0-13.9,0.1-24.5c-0.3-20.2,0.8-22.3,2.3-23.4
	c1.4-1.4,24.8,1.8,24.4-0.8c-14-8.2-21.6-9.3-24.2-34.8c-3.1-39.7-1-4.2-1.7-84.9c-1-11.2,12.7-20.6,18.4-23.2
	c39.2-20.2,48.6-15.3,87.2-40.7C298.3,118.9,330.8,85.4,306.9,31.7z M154.8,367.1c-4.1,4.2-10.8,0.3-33.2-1.1
	c-3.4-0.2-11.2-0.8-18.6-1.9c-116.6-4.1-47.2-133.2,20.7-142.8c-0.5,30.6,9.3,96.7-23.1,98.4c-1,1.4-0.8,3.7,0.3,4.8
	c19.6,0.1,29.3-0.2,55.1,2c0.3,5.3,0.6,12.8,0.7,21.7C156.8,363.6,156.3,365.5,154.8,367.1z M240.9,133.5c-8,5.7-10,4.6-46.8,23.6
	c-13.9,7.2-25.2,13.4-32.6,17.5c-0.8-27.4-1-55.9-0.5-85.3c0.4-24.6,1.2-48.4,2.3-71.6c8.4-2.1,20.5-4.5,35.2-5.5
	c11.6-0.8,20.6-1.4,30.9,0.7c4.5,0.9,31.1,5.9,42.6,24.3C288.8,64.3,269.8,112.7,240.9,133.5z"/>
<path class="st2" d="M391,178.9"/>
</svg>
